<svg width="288" height="288" viewBox="0 0 288 288" fill="none" xmlns="http://www.w3.org/2000/svg">
<mask id="mask0_16_64" style="mask-type:luminance" maskUnits="userSpaceOnUse" x="0" y="0" width="288" height="288">
<path d="M0 0H287.2V287.2H0V0Z" fill="white"/>
</mask>
<g mask="url(#mask0_16_64)">
<path d="M277.933 69.4815C277.933 72.0319 275.854 74.1185 273.304 74.1185H189.926C187.368 74.1185 185.289 72.0319 185.289 69.4815V13.8963C185.289 11.3459 187.368 9.26669 189.926 9.26669H273.304C275.854 9.26669 277.933 11.3459 277.933 13.8963V69.4815ZM238.563 111.178H224.667L203.822 83.3778H259.407L238.563 111.178ZM236.244 138.97H226.978V120.437H236.244V138.97ZM166.763 250.141H157.496V231.615H166.763V250.141ZM148.23 254.778C148.23 262.444 142.007 268.674 134.333 268.674H41.6889C34.0153 268.674 27.7926 262.444 27.7926 254.778V162.126C27.7926 154.46 34.0153 148.23 41.6889 148.23H134.333C142.007 148.23 148.23 154.46 148.23 162.126V254.778ZM27.7926 125.074V88.0148C27.7926 80.3412 34.0153 74.1185 41.6889 74.1185H134.333C142.007 74.1185 148.23 80.3412 148.23 88.0148V125.074C148.23 132.74 142.007 138.97 134.333 138.97H41.6889C34.0153 138.97 27.7926 132.74 27.7926 125.074ZM50.9556 9.26669C53.506 9.26669 55.5852 11.3459 55.5852 13.8963V64.8519H46.326V13.8963C46.326 11.3459 48.4052 9.26669 50.9556 9.26669ZM92.6444 55.5852H101.911V64.8519H92.6444V55.5852ZM101.911 32.4222C101.911 24.756 108.134 18.5259 115.807 18.5259C123.481 18.5259 129.704 24.756 129.704 32.4222V46.326H120.437V64.8519H111.178V46.326H101.911V32.4222ZM134.333 64.8519H129.704V55.5852H138.97V65.323C137.467 65.0164 135.926 64.8519 134.333 64.8519ZM9.26669 115.807V97.274H18.5259V115.807H9.26669ZM273.304 0H189.926C182.252 0 176.022 6.22267 176.022 13.8963V69.4815C176.022 77.1551 182.252 83.3778 189.926 83.3778H192.237L217.719 117.348V148.23H226.978V268.674C226.978 273.775 222.819 277.933 217.719 277.933C212.61 277.933 208.452 273.775 208.452 268.674V254.778C208.452 244.554 200.143 236.244 189.926 236.244H176.022V222.348H157.496V162.126C157.496 154.527 153.772 147.818 148.088 143.6C153.772 139.382 157.496 132.673 157.496 125.074V88.0148C157.496 80.4684 153.824 73.8418 148.23 69.6086V46.326H138.97V32.4222C138.97 19.6478 128.582 9.26669 115.807 9.26669C103.033 9.26669 92.6444 19.6478 92.6444 32.4222V46.326H83.3778V64.8519H64.8519V13.8963C64.8519 6.22267 58.6292 0 50.9556 0C43.2819 0 37.0593 6.22267 37.0593 13.8963V65.323C26.4912 67.477 18.5259 76.8335 18.5259 88.0148H9.26669C4.15842 88.0148 0 92.1733 0 97.274V115.807C0 120.908 4.15842 125.074 9.26669 125.074H18.5259C18.5259 132.673 22.258 139.382 27.9347 143.6C22.258 147.818 18.5259 154.527 18.5259 162.126V254.778C18.5259 267.552 28.9145 277.933 41.6889 277.933H134.333C145.515 277.933 154.871 269.975 157.025 259.407H176.022V245.511H189.926C195.027 245.511 199.185 249.67 199.185 254.778V268.674C199.185 278.898 207.495 287.2 217.719 287.2C227.943 287.2 236.244 278.898 236.244 268.674V148.23H245.511V117.348L270.985 83.3778H273.304C280.977 83.3778 287.2 77.1551 287.2 69.4815V13.8963C287.2 6.22267 280.977 0 273.304 0Z" fill="#B8D6C7"/>
</g>
<rect x="44.6" y="163.6" width="87" height="17" fill="white"/>
<rect x="194.6" y="18.6" width="74" height="46" fill="white"/>
<rect x="41.6" y="199.6" width="90" height="53" fill="white"/>
<rect x="37.6" y="83.6" width="101" height="46" fill="white"/>
<path d="M194.556 27.7926H268.674V18.5259H194.556V27.7926Z" fill="#EDB85C"/>
<path d="M194.556 46.326H268.674V37.0593H194.556V46.326Z" fill="#EDB85C"/>
<path d="M194.556 64.8518H268.674V55.5851H194.556V64.8518Z" fill="#EDB85C"/>
<path d="M138.97 83.3777H37.0593V92.6444H138.97V83.3777Z" fill="#EDB85C"/>
<path d="M138.97 101.911H37.0593V111.178H138.97V101.911Z" fill="#EDB85C"/>
<path d="M138.97 120.437H37.0593V129.704H138.97V120.437Z" fill="#EDB85C"/>
<path d="M46.326 176.022V166.763H129.704V176.022H46.326ZM129.704 157.496H46.326C41.2177 157.496 37.0593 161.662 37.0593 166.763V176.022C37.0593 181.131 41.2177 185.289 46.326 185.289H129.704C134.805 185.289 138.97 181.131 138.97 176.022V166.763C138.97 161.662 134.805 157.496 129.704 157.496Z" fill="#EDB85C"/>
<path d="M120.437 250.141V240.874H129.704V250.141H120.437ZM46.326 240.874H55.5852V250.141H46.326V240.874ZM55.5852 203.822V213.081H46.326V203.822H55.5852ZM120.437 222.348H129.704V231.615H120.437V222.348ZM101.911 231.615V222.348H111.178V231.615H101.911ZM101.911 240.874H111.178V250.141H101.911V240.874ZM83.3778 240.874H92.6444V250.141H83.3778V240.874ZM74.1186 240.874V250.141H64.8519V240.874H74.1186ZM74.1186 213.081H64.8519V203.822H74.1186V213.081ZM92.6444 222.348V231.615H83.3778V222.348H92.6444ZM101.911 203.822H111.178V213.081H101.911V203.822ZM92.6444 213.081H83.3778V203.822H92.6444V213.081ZM55.5852 231.615H46.326V222.348H55.5852V231.615ZM64.8519 222.348H74.1186V231.615H64.8519V222.348ZM129.704 213.081H120.437V203.822H129.704V213.081ZM129.704 194.556H46.326C41.2177 194.556 37.0593 198.714 37.0593 203.822V250.141C37.0593 255.242 41.2177 259.407 46.326 259.407H129.704C134.805 259.407 138.97 255.242 138.97 250.141V203.822C138.97 198.714 134.805 194.556 129.704 194.556Z" fill="#EDB85C"/>
</svg>
